<svg id="Livello_1" data-name="Livello 1" xmlns="http://www.w3.org/2000/svg" viewBox="0 0 300 200"><path d="M29.41,114.81c1.87-16.4-6.07-21.2-7.49-25.69-1.81-5.65,3.9-7.13,14-5.7a88.47,88.47,0,0,1,20.23,5c2.08.83,5.08,2.13,7.24.82,2.49-1.53.91-3.47.21-4.92-2.17-4.48-7.34-6.07-12.44-8.16C39.81,73,32.79,63.07,28.29,54a35.31,35.31,0,0,1-2.77-10.52c-1.44-10.55,5.7-20,16.47-20,13.3,0,25.07,1.88,38.3,4.67,2.6.59,5.16,1.25,7.66,1.91,12.52,3.32,13.67,7.76,7.78,18.47a70,70,0,0,1-5.51,8.68C83.53,66,70.13,69.43,61.8,60.7c-3.3-3.53-4.35-7.85-5.8-12-1.2-3.41-2.67-6.8-9-4.46-4.84,1.79-8.76,8.06-6.42,12C48.78,70.21,62,73.93,77.69,73.49c7.19,0,19.35,2,23.72,8.85,6.19,9.64-4.58,22-10.39,30.09-4.14,5.78-23.58,23.48-28.93,11.29-.15-2.54,1.77-8.29-2.2-5.38-3.62,2.65-6.45,8.9-9.23,13.75-7,12.26-14.28,25-25.15,34.34-14.15,17-8.42-11.67-7.26-15.21C22.18,139.29,26.47,127.39,29.41,114.81Z"/><path d="M159.77,66.83c3.47,8.48,5,11.14-2.13,18.68-8.85,9.38-19.22,17.92-31.26,22.53-9.06,3.46-20.65,8.5-30.09,6.51-4.76-1-3.16-8.54-4.42-20.7-1.5-14.61-12.2-16.4-10.51-17,.49-.18,1.47,0,2.17-.3,1.15-.54-.41-1.57.5-1.88.53-.17.45-.56,2.33-.26.29,0,6.64,1.64,10.23,1.47a6.57,6.57,0,0,0,1.75-.26c3.54-1.21-.5-3-2.49-4.08-19.67-11.13,4.34-33.07,13.08-41.12,11.53-10.64,38.1-11,43.6,3.64C156.24,44,155.27,55.82,159.77,66.83Zm-20.72-18c.22-1.84.9-4.9,1.55-8,.5-2.4,1.36-5.52-2.69-5.32s-4.82,3.36-5.87,5.76c-4.94,14.3-1.54,26.79-5.49,40.51-1.53,2.52-5.74,8.67-1.15,11.48,2.64,1.6,10.29-4.9,13-9.8C142.57,75.72,139,57,139.05,48.79Z"/><path d="M149.93,58.82c-1.56-12.91,13.66-24.41,23.55-31.62,7.68-5.6,17.9-4.05,18.89,4.34.73,6.17-3.5,11.83-8.75,16.78-4.1,3.87-7.83,7.46-8.16,11.89-.11,1.56-.31,3,2.28,4.05,2.27.92,3-.28,3.86-1.15,5.2-5.43,9.93-13.44,17.3-21.39,4.71-5.08,9.33-10.4,13.26-15.09,9.12-10.91,28.84-5.79,28.74,9.76-.05,9-8.46,17.07-12.19,24.21-4.7,9-11,7.46-18.77,2.4-1.89-1.24-4.58-3.93-5.76-1.47-.93,1.92,1.66,3,3.84,4,4,1.8,4,4.48,3.87,6.52-.94,11.17-5,16-10.69,23.51C194,105,182.91,110.9,170.64,109.68c-8-.79-13.92-5-12.22-12.53,2-9,7.2-13.72,15.89-13.2,4.4.26,9.36,2.16,13.61,1.43,7.15-1.21,11.81-3.93,11.26-10.16-.12-1.38-.43-3.17-2.76-4-2.65-.92-2.51.94-3,2a11.47,11.47,0,0,1-1.62,3.09c-7.85,8.63-23,1.58-31.19-4.08C154.92,68.31,150.59,64.37,149.93,58.82Z"/><path d="M278.85,41.72c-.14,6.4-3.3,13-5.26,18.45-5.94,16.44-2.67,41-2.8,58-.11,14.24,13.77,35,3.35,48.38-3.53,4.52-10.62,5.24-17.69-7.51-5.63-10.15-7.53-21.38-8.76-32.63-.88-8.18-.28-12.68,3.38-15.58,2.31-1.84,5.47-4,7-7.59a6.21,6.21,0,0,0-2.29-7.81c-3-2.18-4.9-.26-6,1.61-2.57,4.32-6.45,7.23-8.43,10.45-3.17,5.14-2.84,13.68-6.41,23.46-2.16,5.89-6.48,10.27-13.34,4.44-7-6-10-14.86-12-22.37-3.2-12.29-1.17-17.44,5-18.39a23.3,23.3,0,0,0,13.52-8c1.92-2.23,2.7-4.18,2.21-6.35-.76-3.39-4-6.44-6-8.24-6.55-5.88-13.16-7.47-13.19-8.68,0-1.44,9.26-1.33,13.47-2.44a2.33,2.33,0,0,0,1.59-1.14c.33-.73-.34-1.65-.37-2.49-.28-7.41,4.55-14.55,10.27-21.44,7-8.43,16.85-16.27,28.64-13.19C272.5,24.65,279.08,30.63,278.85,41.72Zm-22.2,44.14c5.55-.31,7.28-4.73,9-9,3-7.51,3.7-16.2,6-25.21.76-3,3.62-8-1.6-8.46-4.78-.41-6.27,4.33-7.24,7.78-2.61,9.18-2.72,18.09-4.45,26.25C257.75,80,255.54,82,256.65,85.86Z"/></svg>