<?xml version="1.0" encoding="utf-8"?>
<!-- Generator: Adobe Illustrator 26.0.2, SVG Export Plug-In . SVG Version: 6.00 Build 0)  -->
<svg version="1.1" id="Livello_1" xmlns="http://www.w3.org/2000/svg" xmlns:xlink="http://www.w3.org/1999/xlink" x="0px" y="0px"
	 viewBox="0 0 300 300" style="enable-background:new 0 0 300 300;" xml:space="preserve">
<style type="text/css">
	.st0{stroke:#000000;stroke-width:7;stroke-miterlimit:10;}
	.st1{fill:none;stroke:#000000;stroke-width:4;stroke-linecap:round;stroke-miterlimit:10;}
</style>
<g id="Livello_2_00000136402246989441836570000016966395693326356152_">
	<path d="M137.8,11.4c29.4,0,56.7,5.8,81.4,20.8c34.8,21.3,54.9,52.4,60.5,92.8c2.6,18.4,2.2,36.7-4.1,54.5
		c-3.8,10.9-9.9,20.2-19.3,27.1c-1.1,0.7-1.7,2.1-1.4,3.3c1.2,12.7-6.5,20.9-19.3,20.7c-1.1-0.2-2.2,0.5-2.5,1.6
		c-16,38.5-62.8,66.4-109.5,66.4c-29,0-55.6-7.3-79-24.8c-17.4-13-29.7-29.6-34-51.2c-4.7-23.7,1.8-44.8,16.7-63.5
		c2.6-3.2,5.4-6.2,8.4-9c1.1-1.7,2-3.5,2.8-5.4c4.7-11.3-3.6-29.4,0.9-49c0,0,2.6-11.3,9.9-19.3c0.3-0.3,5.5-6,8-6.3
		c0.5,0,1.1-0.3,1.4-0.7c0.2-0.6,0.2-1.2,0-1.7C54.8,50.6,61.3,35,76.3,25.3c11.8-7.6,25.1-10.8,38.8-12.6
		C122.6,11.8,130.2,11.3,137.8,11.4z M171.3,75.6c1.5,2.6,2.9,5.3,4.1,8.1c1.1,2.6,1.8,5.4,2.3,8.2c0.5,2.5,2.1,5.8-0.7,6.9
		c-1.6,0.6-2.5-0.3-3.3-1.5c-1.8-2.7-4.3-4.8-7.3-6.2c-4.6-2.3-9.5-3.9-14.6-4.7c-13.2-2.3-26.5-1.3-39.7-0.9
		c-11.7,0.3-23.4,1-35-1.7c-1.8-0.4-2.7,0.5-3.7,1.6c-16.4,17.1-27.1,38.9-30.4,62.4c-0.3,2-1.3,3.8-2.9,5.1
		c-3.7,3.2-7.1,6.8-10,10.7c-14.4,18.8-19.8,39.7-13.6,62.9c4.9,18.3,16.1,32.4,31.1,43.6c41.4,30.9,102.8,31.6,145.6,1.7
		c14.8-10.4,26.7-23.2,34.4-39.7c1-2.1,1.3-3.5-1.2-4.8c-2.4-1.5-4.3-3.7-5.4-6.3c-0.7-1.1-0.4-2.6,0.6-3.3c0.1-0.1,0.2-0.1,0.3-0.2
		c1.4-0.9,2.6-0.3,3.5,1c0.4,0.6,0.8,1.3,1.2,2c4.2,5.7,12.3,6.9,18,2.7c5.2-3.9,6.8-11.1,3.5-16.7c-3.1-5.5-9.8-7.8-15.6-5.5
		c-1.8,0.6-3.6,1.2-4.5-1.1s1-3.1,2.8-3.7c2.8-1,5.9-1.4,8.9-1c0.9,0.1,2,1.1,2.8,0s0.2-2.4-0.4-3.5c-0.7-1.4-2.2-2.3-3.8-2.3
		c-2.1-0.1-4.3,0.4-6.2,1.3c-9.8,4.6-17.2,11.5-21,21.8c-0.9,2.3-2.1,3.8-4.6,3.2c-2.5-0.6-13.4-2.1-13.1-4.5
		c0.6-5.2,4.4-14.3,4.2-20.2c-0.1-2.1,0-4.2,0.2-6.3c1.2-10.8,2-19.7,6.3-31.4c1.3-3.5,2.4-7.2,3.3-10.9
		C215,114.1,204.2,87.1,171.3,75.6z"/>
	<path d="M110.3,270.8c-27.4-1.2-51-10.2-67.9-32.9C35,228,30.3,216.8,31,204c0.5-8.6,5.3-14.7,12.9-16.8c4.8-1.3,9.3-0.3,13.5,2
		c4.7,2.6,9,5.9,12.7,9.8c14.2,14.7,32,21.9,51.6,25.3c4,0.5,7.9,1.4,11.7,2.6c10.5,4,15.4,13.7,12.2,24.5
		c-3.4,11.3-11.6,16.7-22.7,18.4C118.8,270.5,114.6,270.8,110.3,270.8z M89.7,234.9c-11.5-9.5-28.2-9.4-39.5,0.3
		c-1.9,1.6-1.9,2.6-0.3,4.5c10.8,12.1,24.2,19.6,39.7,23.4c12.5,3.1,25.1,4,37.7,0.6c5.4-1.5,5.4-1.7,2.8-6.5
		c-1-1.9-2.1-3.7-3.3-5.4c-5.9-8.9-14.3-13.1-24.9-13.2c-5.7,0.1-11.3,1-16.8,2.6c-1.8,0.5-3.2,0.1-3.7-1.7s0.8-2.7,2.3-3.1
		C85.8,235.9,87.7,235.4,89.7,234.9z"/>
	<path d="M140.2,180c0.4-2.5,0.8-5.1,1.2-7.6c0.4-3.2,1.4-5.8,5.2-6.2c2.5-0.3,2.9-2,1.2-3.8c-2.3-2.3-1.9-4.5-0.6-7.2
		c3.1-6,6.3-11.8,10.9-16.8c1.9-2.2,4.4-3.9,7.1-4.9c2-0.6,4.2-0.5,6.1,0.5c3.8,2,3.8,5,3,8c-0.8,2.7-2.1,5.2-3.9,7.3
		c-7.1,9.3-11.9,19.6-13.6,31.2c-0.3,2.4-1.1,4.8-2.3,6.9c-1.6,2.6-3.7,4.2-6.9,3.9c-3-0.2-5.6-2.2-6.4-5.1
		C140.6,184.2,140.3,182.1,140.2,180z"/>
	<path d="M58.5,155.8c0.4-2.3,0.9-4.7,1.2-7.1c0.3-2.9,1.5-4.7,4.6-5.1c2.3-0.3,2.7-1.9,1.2-3.5c-2.1-2.2-1.7-4.2-0.5-6.6
		c2.7-5.3,5.5-10.4,9.5-14.8c2.1-2.3,4.4-4.4,7.7-5.1c5.2-1,8.8,2.8,7.4,7.9c-0.9,2.8-2.3,5.3-4.2,7.6c-6,7.8-10,16.9-11.6,26.7
		c-0.4,2.1-1,4.1-1.8,6c-1.2,3.1-3.5,5-6.9,4.6c-3.5-0.4-5.3-2.6-6-5.8C58.8,159.1,58.7,157.5,58.5,155.8z"/>
	<path d="M99.4,193c-7.3,0-13.6-5.2-14.9-12.4c-1.6-8.3,3.8-16.2,12.1-17.8c6.1-1.2,12.4,1.5,15.7,6.8c1,1.6,2,3.3-0.1,4.6
		c-2.1,1.3-2.9-0.3-3.9-1.7c-3.4-4.9-8.9-6.4-13.7-3.7c-4.6,2.5-6.6,8.1-4.6,12.9c2.2,5.2,7.5,7.5,13.3,5.6c1.9-0.6,3.5-0.7,4.1,1.3
		s-0.9,2.8-2.4,3.4C103.2,192.7,101.3,193,99.4,193z"/>
	<path class="st0" d="M285.5,157.5c-1-4.1-2.3-8.1-4-12c-3.3-7.1-7.6-13.7-12.7-19.6c-16.6-19.1-35.1-36-56.7-49.3
		c-21-12.9-44.1-22.1-68.3-27.2c-11.4-2.5-23-4.1-34.6-4.8c-11.2-0.7-22.5-0.6-33.7,0.3c-5.5,0.3-10.9,1-16.3,2.1
		c-1.3,0.5-2.6,0.8-3.9,1c0.1-0.1,0.1-0.3,0.2-0.4C65,33,77.4,22.1,93.4,15.4c13.9-5.8,28.7-9.1,43.7-9.7
		c21.8-1.1,69.3-3.3,108.2,28.8c17.3,14.3,28.7,32,33.9,44.2c3.5,8.5,6.1,17.3,8,26.3c0.8,3.7,1.4,7.4,1.7,11.2
		c0.5,6.9,0.5,13.8-0.1,20.7C288.3,143.8,287.2,150.7,285.5,157.5z"/>
	<path class="st0" d="M55.1,48.1l0.2-0.3C55.3,48.1,55.2,48.1,55.1,48.1z"/>
	<path class="st0" d="M261.5,201.7c-5.2-0.7-8.7-4.4-10.8-6.5c-4.4-4.7-8.3-9.7-11.8-15.1c-14.1-20.5-32.6-36-54.3-47.8
		c-13.4-7.5-27.4-13.7-41.9-18.6c-14.3-4.6-29-7.9-43.9-9.7c-8.4-1-16.9-1.5-25.3-1.3c-6.4,0.2-12.8,0.6-19.2,0.3
		c-4.4-0.1-8.8-0.9-12.9-2.2c-6.4-2.2-9.9-6.6-10.9-13.2c0-0.9-0.1-1.7-0.5-2.5v-7c0.1-0.1,0.2-0.2,0.2-0.3c0.4-2.8,1-5.5,2.1-8.1
		c2-5.1,9.7-13.8,11.2-15C56.1,44,76.2,42,78,41.8c65.1-6.1,113.6,14.1,113.6,14.1c65.4,27.2,91.8,72.5,95.3,83.2
		c5.8,17.5,1.5,31.1,1.5,31.1l0,0c-1.2,6.1-3.4,12-6.4,17.4c-1.5,2.7-3.4,5.2-5.6,7.5c-2.7,2.7-5.9,5.9-10.9,6.6
		C264.2,201.9,262.8,201.9,261.5,201.7z"/>
	<path class="st1" d="M236.3,219.9c-5.4-0.3-10.5,2.5-13.2,7.2c-3.5,6.9-0.9,15.4,6,19c6.9,3.4,15.3,0.8,19-5.9
		c3.3-6.3,0.1-12.9-0.2-13.6"/>
</g>
</svg>
