<svg xmlns="http://www.w3.org/2000/svg" viewBox="0 0 300 300"><defs><style>.cls-1,.cls-2{stroke:#000;stroke-miterlimit:10;}.cls-1{stroke-width:7px;}.cls-2{fill:none;stroke-linecap:round;stroke-width:2px;}</style></defs><g id="Livello_2" data-name="Livello 2"><path d="M32,149.68c9.4,0,10.73-5.91,10.73-11.22a103.08,103.08,0,0,0-1.06-12.73,100.85,100.85,0,0,1-1.06-12.58c0-14,7.94-19.87,19.19-19.87H62.6v8.34H60.22c-7.81,0-10.46,4.85-10.46,13a75.7,75.7,0,0,0,.93,10.77A80.56,80.56,0,0,1,51.62,137c.13,9.7-3.58,14.55-9.54,16.37v.3c6,1.67,9.67,6.83,9.54,16.53a78.93,78.93,0,0,1-.93,11.52,77.77,77.77,0,0,0-.93,10.92c0,8.49,3.05,13.19,10.46,13.19H62.6v8.34H59.82c-11,0-19.19-5.46-19.19-20.77a98.18,98.18,0,0,1,1.06-12.43,96.16,96.16,0,0,0,1.06-12.29c0-4.7-1.33-11.21-10.73-11.21Z"/><path d="M268.19,157.42c-9.4,0-10.72,6.51-10.72,11.21a96.16,96.16,0,0,0,1.06,12.29,98.16,98.16,0,0,1,1.05,12.43c0,15.31-8.33,20.77-19.19,20.77h-2.78v-8.34h2.25c7.41-.15,10.59-4.7,10.59-13.19a103.83,103.83,0,0,0-.93-10.92,78.46,78.46,0,0,1-1.06-11.52c0-9.7,3.71-14.86,9.54-16.53v-.3c-5.83-1.82-9.54-6.67-9.54-16.37a80.29,80.29,0,0,1,1.06-11.52,101.07,101.07,0,0,0,.93-10.77c0-8.19-2.78-12.89-10.46-13h-2.38V93.28h2.65c11.25,0,19.32,5.92,19.32,19.87a100.83,100.83,0,0,1-1.05,12.58,103.08,103.08,0,0,0-1.06,12.73c0,5.31,1.32,11.22,10.72,11.22Z"/><path d="M146.07,94.16c12.83,0,24.72,2.49,35.49,9.07,15.18,9.28,23.93,22.86,26.38,40.46,1.11,8,.95,16-1.78,23.79a23.9,23.9,0,0,1-8.42,11.81,1.37,1.37,0,0,0-.61,1.46c.53,5.51-2.83,9.11-8.41,9a1,1,0,0,0-1.08.7c-7,16.8-27.4,29-47.78,29-12.64,0-24.26-3.19-34.45-10.8-7.58-5.66-13-12.91-14.84-22.33-2.07-10.37.77-19.54,7.29-27.69a38.06,38.06,0,0,1,3.68-3.94,17.49,17.49,0,0,0,1.24-2.36c2.06-4.94-1.59-12.84.4-21.36a21.59,21.59,0,0,1,4.32-8.42c.13-.13,2.4-2.62,3.47-2.76a.87.87,0,0,0,.62-.31,1.07,1.07,0,0,0,0-.75c-1.7-7.48,1.14-14.27,7.69-18.49,5.16-3.32,11-4.69,16.93-5.48A69.13,69.13,0,0,1,146.07,94.16Zm14.65,28a28.58,28.58,0,0,1,1.77,3.51,16.88,16.88,0,0,1,1,3.56c.2,1.1.91,2.53-.3,3-.69.27-1.1-.13-1.43-.67a7.78,7.78,0,0,0-3.18-2.7,20.76,20.76,0,0,0-6.36-2c-5.76-1-11.55-.58-17.33-.41-5.11.15-10.22.46-15.26-.72-.78-.18-1.17.22-1.61.68a48.93,48.93,0,0,0-13.24,27.2,3.65,3.65,0,0,1-1.26,2.24,31.59,31.59,0,0,0-4.36,4.67c-6.33,8.2-8.68,17.32-6,27.44,2.13,8,7,14.13,13.55,19,18.06,13.5,44.83,13.8,63.54.75a43.22,43.22,0,0,0,15-17.33c.42-.91.59-1.5-.49-2.09a6,6,0,0,1-2.34-2.74,1,1,0,0,1,.41-1.5,1,1,0,0,1,1.49.43c.19.28.34.59.54.86a5.61,5.61,0,1,0,2.56-8.53c-.8.28-1.6.54-1.95-.47s.45-1.34,1.22-1.63a8,8,0,0,1,3.88-.41c.4.05.89.46,1.2,0a1.5,1.5,0,0,0-.16-1.52,1.81,1.81,0,0,0-1.66-1,5.92,5.92,0,0,0-2.69.57,16.74,16.74,0,0,0-9.15,9.51c-.38,1-.92,1.65-2,1.38s-5.82-.89-5.69-2c.28-2.26,1.92-6.24,1.84-8.82a21.21,21.21,0,0,1,.08-2.76c.51-4.7.87-8.58,2.76-13.71.57-1.54,1-3.14,1.45-4.73C179.74,139,175.05,127.21,160.72,122.17Z"/><path d="M134.09,207.31c-11.94-.49-22.25-4.46-29.61-14.34-3.24-4.32-5.29-9.19-5-14.77a7.57,7.57,0,0,1,5.64-7.33,7.8,7.8,0,0,1,5.91.87A21.89,21.89,0,0,1,116.6,176c6.18,6.42,14,9.54,22.53,11a27.43,27.43,0,0,1,5.12,1.14,8.32,8.32,0,0,1,5.31,10.69c-1.47,4.93-5.06,7.27-9.91,8A38.12,38.12,0,0,1,134.09,207.31Zm-9-15.65a13.34,13.34,0,0,0-17.22.15c-.84.72-.83,1.15-.12,1.95A33.54,33.54,0,0,0,125.1,204a32.19,32.19,0,0,0,16.45.24c2.37-.65,2.37-.74,1.23-2.84-.44-.81-.92-1.6-1.43-2.37a12.38,12.38,0,0,0-10.86-5.75,25.62,25.62,0,0,0-7.32,1.16c-.81.24-1.39.07-1.61-.73s.34-1.16,1-1.35C123.39,192.09,124.23,191.89,125.11,191.66Z"/><path d="M147.16,167.71c.17-1.1.36-2.2.51-3.3.19-1.39.59-2.5,2.28-2.69,1.08-.13,1.25-.89.51-1.66-1-1-.84-2-.23-3.13a31.22,31.22,0,0,1,4.75-7.31,7.33,7.33,0,0,1,3.11-2.16,3.42,3.42,0,0,1,2.64.22c1.64.87,1.67,2.18,1.32,3.48a9.52,9.52,0,0,1-1.71,3.2A28.56,28.56,0,0,0,154.42,168a8,8,0,0,1-1,3,3,3,0,0,1-3,1.69,3.09,3.09,0,0,1-2.78-2.23A9.72,9.72,0,0,1,147.16,167.71Z"/><path d="M111.49,157.16c.17-1,.39-2,.51-3.1a2.15,2.15,0,0,1,2-2.23c1-.13,1.19-.82.5-1.53-.91-.94-.74-1.81-.2-2.87a28.86,28.86,0,0,1,4.16-6.46,6.31,6.31,0,0,1,3.35-2.21,2.62,2.62,0,0,1,3.23,3.43,10.16,10.16,0,0,1-1.82,3.3,25.48,25.48,0,0,0-5,11.63,12.3,12.3,0,0,1-.78,2.64,2.8,2.8,0,0,1-3,2,2.87,2.87,0,0,1-2.61-2.55C111.65,158.59,111.59,157.91,111.49,157.16Z"/><path d="M129.35,173.39a6.58,6.58,0,0,1-6.49-5.42A6.64,6.64,0,0,1,135,163.18c.43.69.87,1.42-.05,2s-1.28-.12-1.72-.76a4.47,4.47,0,1,0-2.17,6.46c.81-.26,1.49-.32,1.78.59s-.38,1.22-1.05,1.48A6.48,6.48,0,0,1,129.35,173.39Z"/><path class="cls-1" d="M210.53,157.9a31.26,31.26,0,0,0-1.74-5.24,35.51,35.51,0,0,0-5.55-8.54,108.33,108.33,0,0,0-24.73-21.51,94.59,94.59,0,0,0-29.78-11.88,98.48,98.48,0,0,0-15.1-2.09,101.86,101.86,0,0,0-14.72.11,47.16,47.16,0,0,0-7.11.89,7.93,7.93,0,0,1-1.72.45,1.21,1.21,0,0,1,.09-.2,36.44,36.44,0,0,1,16.54-14,55.59,55.59,0,0,1,19.09-4.24C155.3,91.2,176,90.2,193,104.21a54.6,54.6,0,0,1,14.81,19.28A64.58,64.58,0,0,1,211.27,135a38.21,38.21,0,0,1,.72,4.89,56.38,56.38,0,0,1,0,9.07A59.15,59.15,0,0,1,210.53,157.9Z"/><path class="cls-1" d="M110,110.19l.09-.11C110.12,110.16,110.05,110.17,110,110.19Z"/><path class="cls-1" d="M200.05,177.19a8.36,8.36,0,0,1-4.71-2.84,47.5,47.5,0,0,1-5.14-6.6,66.81,66.81,0,0,0-23.67-20.86,108.51,108.51,0,0,0-18.27-8.12,101.17,101.17,0,0,0-19.16-4.22A77.33,77.33,0,0,0,118,134c-2.79.07-5.58.27-8.37.13a20.17,20.17,0,0,1-5.6-1,6.65,6.65,0,0,1-4.76-5.77,2.74,2.74,0,0,0-.2-1.09v-3a.42.42,0,0,0,.08-.12,15,15,0,0,1,.9-3.49c.87-2.21,4.25-6,4.87-6.53,5.5-4.67,14.26-5.57,15-5.65,28.39-2.66,49.57,6.15,49.57,6.15,28.55,11.89,40,31.62,41.58,36.29a23.6,23.6,0,0,1,.64,13.58h0a24.68,24.68,0,0,1-2.81,7.58,15.82,15.82,0,0,1-2.44,3.26,8.23,8.23,0,0,1-4.75,2.87A6.09,6.09,0,0,1,200.05,177.19Z"/><path class="cls-2" d="M189,185.14a6.36,6.36,0,0,0-5.78,3.12A6.16,6.16,0,1,0,194.15,194a6.73,6.73,0,0,0-.1-5.91"/></g></svg>