<svg id="Livello_1" data-name="Livello 1" xmlns="http://www.w3.org/2000/svg" viewBox="0 0 284.84 276.16"><path d="M84.31,36.64c26.41-19.87,52.73-18.78,80.46-3.42,12.91,7.15,26.08,13.49,36.46,24.24,2.37,2.46,4.29,6.36,7.07,7.08,2.19.58,5.35-2.79,8.15-4.27,23.9-12.58,71.89,2.57,76.17,37.94a37.38,37.38,0,0,1-1.3,15.51c-3,10-6.1,20-9.49,29.88-8.55,25-27.18,34.15-52.29,25.9-10-3.27-9.83-3.27-10.26,7.16-.62,15.09-1,30.22-2.43,45.24-.62,6.48,2.62,8.8,7.2,8.18,6.65-.91,8.6,3.89,10.87,7.56,4.61,7.46,1.49,14.72-6.81,18.13-3,1.22-6.25,2.19-8.69,4.14-7.32,5.88-15.17,6.87-23.75,3.69-2.89-1.07-4-.27-5.88,2.53-15.15,22.86-31,28.13-56.38,20.75-1.13-.33-2.63-.89-3.07-1.78-3.56-7.22-8.61-4-13.85-2.54-10.31,2.92-20.81,2.19-31.09-.24-6.3-1.49-9.05-6.74-9.48-12.69-.71-9.82-1.46-19.76,3-29.08,1-2.15.72-4.33.64-6.52-1-26.77-1.19-53.61-3.45-80.27C74.85,139,75.47,123.6,69,109.46c-1.53-3.37-1.78-7.33-2.66-11.21-2.2.15-2.23,2.12-3,3.26-8.34,11.79-24.17,11.16-31-1.45C31.1,97.89,29.89,98,28,97.93c-11.14-.18-17.1-8-13.77-18.35.75-2.35.33-3.53-1.06-5.27-7.46-9.39-6.82-17.6,2.06-26,1.69-1.59,2-2.93,1.82-5.19-.87-11.63,6.4-19.57,17.83-19.36a7.19,7.19,0,0,0,6.54-2.91c8.6-10.24,20.72-9.17,28.19,2.2.85,1.3,1.24,3.1,3.26,3.2C79.35,26.62,82.39,30.82,84.31,36.64ZM25.17,81c-6.78-1.71-7.48-1.43-7.86,2.71-.67,7.42,6,12.32,13.24,9.37,3.67-1.49,5.16-1.36,5,3.08s2.72,7,6.39,8.7C49,108.14,57.16,105,61,97.07c1.42-2.9,2.91-4.17,6.22-4.4,4.41-.31,8.42-2,10.68-6.5L71.16,83.4c9.66-1.77,17.5-.6,25.34.74,2.14.37,2.1,1.88,2.22,3.59,1,13.92,7.53,24.86,18.51,33.16a9.14,9.14,0,0,1,3.93,7c.87,9.22,1.93,18.39,1.6,27.71-.83,24-1.35,47.93-2,71.89-.07,2.62-.08,5.24,0,7.85.13,4.27,3.84,2.73,6,3.3,3.09.83,2.31-2,2.33-3.53.08-4.23,0-8.46-.13-12.69-.68-30.61-1.63-61.21-3.78-91.76-.4-5.68-1.74-10.08-6.88-14.24-19-15.39-21-40-5.55-59,.77-.94,1.42-2,2.13-3-6.32,3.43-10.09,8.74-12.83,14.89-.79,1.76-1.34,4.33-4.14,2.83a83,83,0,0,1-21.15-15.5c1.91-1.67,3.76,1.28,4.78-.75.86-1.7.07-3.54-1.14-5a8.06,8.06,0,0,0-2.13-2.11c-3.2-1.72-3.45-3.36-.55-5.82a6.52,6.52,0,0,0,1.73-7.74c-1.2-3.1-3.55-5.15-6.87-4.92s-4.42-1.14-5.67-3.92c-3.23-7.18-9.36-9.9-16.23-7.87-2.63.77-5.07,2.08-6.1,4.55-1.26,3,3,2.54,3.58,4.6.13.51.21,1,.45,2.22-5.37-2.29-9.77-1.65-12.93,3.87-1-6.81-2.73-7.52-8.16-4.32-5.62,3.3-7.57,8.45-6.16,14.42.84,3.57.36,5.22-2.89,7.11A12.7,12.7,0,0,0,12.66,65.6c1.74,6.5,4.27,7.62,10.74,3.2C21,73.86,23.18,77.26,25.17,81Zm151.14-37.1c8.87,17,9.49,26.87,7.32,51.69-.81,9.2-3.11,18.27-4.79,27.7,2.33-.36,2.18-2.66,4.19-2.52-3.51,10.57-6,21.28-6.21,32.43,0,2.78-.21,5.08,3.68,5.43,11.86,1.09,23.67,1.49,35.53,0,3.49-.44,4.62-1.9,4.86-5.37,1.06-14.89,1.36-29.76-.15-44.63C217.72,78.94,201.64,58.21,176.31,43.89Zm52,191.6c-2.93-1.77-4.59.43-6.56.93-1.08.28-2.27,1.27-2.92-.53-.29-.79,1.88-2.5-.71-2.33-1.45.09-1.22,1.72-1.43,2.9-.45,2.49,1.43,7-2.26,6.87-3.42-.15-1.35-4.66-1.84-7.21a10.26,10.26,0,0,1,0-2.41c1-21.7,1.92-43.4,3.13-65.09.26-4.57-1-5.86-5.59-5.58a188.53,188.53,0,0,1-22.3,0c-4.63-.27-6.23.69-6,5.76,1.09,22.1,3.2,44.18,2.56,66.32-.25,8.43,1.39,15.61,7.63,22.38-.23-1.85-.34-3.47,1.19-3.95,1.8-.57,2.3,1.13,3.14,2.19,5.41,6.78,9.9,7.62,17.07,3a89.73,89.73,0,0,1,11.73-6.16c2.61-1.16,7.2-1.54,6.69-4.92s-4.91.73-7.15-1.42c.72-3.41,5.32-2.39,6.42-5.57-3.74-1.12-6.53,3.08-10.37,1.72C222.11,238.71,226.38,238.39,228.34,235.49ZM168.2,185.06h2.16c0-10.05-.16-20.1.09-30.15.08-3.25-.76-4.38-4-4a124.74,124.74,0,0,1-31.31-.1c-3.77-.47-4.78.54-4.59,4.47.83,17.28,1.36,34.58,1.85,51.87.44,15.59,2.09,17.33,17.9,17.73a44,44,0,0,0,10.78-1.06c4.71-1.07,7.31-3.31,7.17-8.61C168,205.19,168.2,195.12,168.2,185.06Zm-51.34.36h.63c.45-10.26.7-20.53,1.45-30.77.32-4.42-1.44-4.95-5.18-4.69a114.71,114.71,0,0,1-27.7-1.22c-4.38-.76-6.09.09-5.85,5,.9,18.5,1.26,37,2.13,55.54.61,12.82,3.11,15,16.21,15.57a44.49,44.49,0,0,0,12.58-1.14c4.09-1,6-2.88,5.84-7.49C116.62,206,116.86,195.69,116.86,185.42ZM130,277.66c2.65,4.69,3.13,5.11,6.66,6.17,19.74,5.93,36,.21,48-16.68,2.93-4.11,3.31-8.09.71-12.31A18,18,0,0,0,171.79,246c-.78-.1-1.78.73-2.54,1.32-11.13,8.58-23.07,8.1-35.18,2.76-2.86-1.26-4.15-1.85-4.72,1.83-1,6.4-.72,12.82-.58,19.25,0,2.27,1.66,3.3,3.36,3.76,12.88,3.51,25.72,5.26,37.73-2.75,3.9-2.6,7.52-5.63,11.26-8.47C168.34,283,150.11,283.39,130,277.66ZM275.73,146.92c-12.29.41-18.81-4.95-17.89-15.15.27-3,.08-5-3.1-6s-5.05,0-6.81,3c-3.22,5.37-8.39,7.35-14.51,6.23-2.48-.45-4.82-1.63-7.52-2.58-.32,6.81-.86,13.21-.84,19.61,0,3.76-3.43,8.08-.69,10.86s7.61,3.33,11.79,4.09c1.19.22,2.35.59,3.53.79C256.43,170.47,271.33,161.89,275.73,146.92ZM102.28,280.74A53.22,53.22,0,0,0,120,277.28c3.67-1.43,5.27-3,5-7.38-.5-7.38-.61-14.85,1.43-22.14.43-1.51,2.67-3.44.29-4.7a5.37,5.37,0,0,0-6.2.33c-11.36,9.09-23.65,8.52-36.12,2.83-2.77-1.27-3.51-.81-3.93,1.84a77.31,77.31,0,0,0-.88,19.21c.76,8.35,3,10.63,11.43,12.09C94.69,280,98.5,280.29,102.28,280.74Zm180.83-155c1-2.91,1.38-5.14,2.39-7.07,2.66-5.11.84-8.23-3.49-11.53C266.65,95.45,249,91,230.22,89.51c-5-.38-7.87,3.52-7.12,8.62.41,2.79,1,5.56,1.22,8.36.3,3,.62,4.31,4.26,2.42,9.86-5.11,17.65-1.7,21.3,8.74,1.06,3,9.89,7.31,12.3,5.47C269.8,117.34,276.38,119.49,283.11,125.75Zm-103.7,77.59c0-3,.1-6,0-9.06-.35-9.45-.78-18.91-1.2-28.36-.07-1.61-.06-3.5-2.36-3.45-1.94.05-1.87,1.77-2,3.14-.11,1.21-.15,2.42-.18,3.62q-.85,26-1.7,51.93c-.18,5.43-.13,10.89-.66,16.29-.61,6.3,4.79,5.51,7.73,6s1.64-3.28,1.72-5.09C181.28,226.66,180.37,215,179.41,203.34Zm56.68-72.47a10,10,0,1,0-.05-20,10,10,0,0,0,.05,20Zm35.21,11.94c5.42,0,9.13-4,9.26-9.8.11-4.95-4-8.94-9.32-9a9.4,9.4,0,1,0,.06,18.79Z" transform="translate(-8.07 -13.83)"/><path d="M52.17,44.57c9.75,3.91,11.32,10.5,4.92,17-1.3,1.32-2.52,2.29-2.31,4.47.61,6.45-3.42,9.11-9.21,10.43,3.83-3.91,7.82-7.66,4.24-13.69-.18-.3.61-1.34,1.13-1.86C58.76,53.16,58.77,53.16,52.17,44.57Z" transform="translate(-8.07 -13.83)"/><path d="M154.06,258.62c-7.37,2.83-12.45,2.4-19.13-1.82Z" transform="translate(-8.07 -13.83)"/><path d="M248.3,151.88c0,1.87-1.1,2.26-2.35,2.33a7.87,7.87,0,0,1-6.37-2.72c-.94-1-2.18-2.16-1-3.59s2.68-.78,3.46.49C243.5,150.8,247.15,149.34,248.3,151.88Z" transform="translate(-8.07 -13.83)"/><path d="M121.06,271.16c-10.87,7.6-22.61,6.78-34.61,3.38C98.1,274.49,109.74,274.45,121.06,271.16Z" transform="translate(-8.07 -13.83)"/><path d="M103.57,254.38c-6.22,2.31-12.23,2.52-17.68-2A174.41,174.41,0,0,0,103.57,254.38Z" transform="translate(-8.07 -13.83)"/><path d="M236,102.71c6.7-2.44,9.5-1.53,12.14,4Z" transform="translate(-8.07 -13.83)"/><path d="M270.62,114.61c4.63-2.81,7.95-1.23,11.23,3.47C277.26,117.73,274.42,114.65,270.62,114.61Z" transform="translate(-8.07 -13.83)"/><path d="M234,115.5c2.6.45,3.9,1.75,3.53,4.17s-1,4.88-4.27,4.71a3.24,3.24,0,0,1-3.34-4C230.29,118,231.21,115.69,234,115.5Z" transform="translate(-8.07 -13.83)"/><path d="M272.62,131.61c-.43,2.31-1,4.76-4.05,4.94-2.35.14-4-1.23-3.79-3.56s.89-5,4-5.12C271.12,127.75,272.54,129,272.62,131.61Z" transform="translate(-8.07 -13.83)"/></svg>