<svg id="Livello_1" data-name="Livello 1" xmlns="http://www.w3.org/2000/svg" viewBox="0 0 290.76 174.3"><path d="M74,29.47a21.21,21.21,0,0,1,.41-7.23c1.49-5.52,6.12-8.09,11.2-8.87a16,16,0,0,1,4.32-.1A10.62,10.62,0,0,1,97.84,18c.69,1,1.1.8,1.91.22A12.53,12.53,0,0,1,112.47,17c3.77,1.55,6.11,6.67,5.21,10.91-.26,1.18.1,1.38,1.1,1.37a15.6,15.6,0,0,1,2.65.18c.87.15.9-.19.81-.9-1.32-10.83,8.41-15.31,15.36-13.3,3.72,1.08,6.76,2.84,8.26,6.61a9,9,0,0,1,.13,5.09c-.09.46-.14.92-.25,1.37-.19.77,0,1.15.88,1a3.54,3.54,0,0,1,.56,0c1,0,2.29.8,2.9.18s.37-1.92.45-2.94c.45-5.43,5.28-10.13,9.85-11.08,5-1,11.66,2.09,13.91,6.59.39.78.66.85,1.43.51a13.86,13.86,0,0,1,12.15,0c5.31,2.59,7.11,6.36,6,12.24-.36,2-.36,2,.71,3.83A20.52,20.52,0,0,1,198.37,35c3.66-2.51,7.59-2.71,11.76-1.76a10.68,10.68,0,0,1,7.4,5.43,1.15,1.15,0,0,0,1.24.66A13.81,13.81,0,0,1,226.58,41a.81.81,0,0,0,1-.07,14,14,0,0,1,17.67,1.69,9.17,9.17,0,0,1,1.71,2c.36.63.66.58,1.13.07a16.82,16.82,0,0,1,9.49-5.21,7,7,0,0,1,3.58.26C267.51,42,271,47.4,270,53.94a1.46,1.46,0,0,0,.76,1.71c1.13.74,2.27,1.56,2,3.23-.16.91-.5,1.66-1.52,1.69-2.77.07-4.78,1.51-6.82,3.24-2.66,2.25-6,2.7-9.37,2.27-.88-.11-1.14.07-1.43.93a45.22,45.22,0,0,1-4.1,8.24c-2,3.49-4.23,6.91-6.42,10.31-.57.88-.47,1.34.4,1.87a10.22,10.22,0,0,0,2.69,1.12,5.38,5.38,0,0,1,2.6,1.29,4.64,4.64,0,0,0,3.55,1.29c.19,0,.38,0,.56,0,4.58-.18,5.81,3,6.16,6.81a2.74,2.74,0,0,1-2.32,3c-1.61.09-2.52-.88-2.7-2.86-.11-1.26-.59-1.54-2.14-1.25,0,.54.53.72.82,1,2.54,2.71,1.6,6.2-1.07,8.1-1.14.81-2.86.86-4.27,1.58a31.13,31.13,0,0,1,7.34,13.23,12.79,12.79,0,0,1-1.88,11c-3.65,5.33-7.54,10.52-10.27,16.44-.42.9-.36,1.23.49,1.66,1.19.61,2.27,1.11,3.67.53a1.68,1.68,0,0,1,2.32.93c.25.58.78.64,1.24.8,1.93.67,3.88,1.31,5.81,2a19.82,19.82,0,0,1,8,5.18,7.33,7.33,0,0,1,2.2,5.81c0,.48-.21,1,.63,1.1,4.81.54,9.56.68,14.16-1.22a26.39,26.39,0,0,0,3.9-2.16,8.88,8.88,0,0,1,4.63-1.35c4.18-.1,6.37,3.37,4.49,7.13a7.9,7.9,0,0,1-2.24,2.64c-6,4.7-12.93,6.33-20.31,6.69-1.76.09-3.53,0-5.61,0,1.23,1.74,1.91,3.45,1.11,5.33a6.59,6.59,0,0,1-2.49,3.45,7.73,7.73,0,0,1-7.77-.89c-2.09-2-2.29-4.54-.5-7.9-2-.09-3.94-.27-5.86-.24-9.55.17-19.09-.37-28.63-.67s-18.81-.15-28.2.46c-.61,0-1,.22-1.08.83a5.78,5.78,0,0,1-.25.65c-1.07,3.52-3.64,4.8-7.11,4.88-4.51.1-9,.49-13.53.19-5.33-.36-10.26-2.41-15-4.6A19.48,19.48,0,0,0,146.16,178a258.2,258.2,0,0,1-26.24.75q-19.9-.16-39.8-.46c-6.74-.1-13.49-.31-20.24-.48l-1.53,0c-.58,0-.94.11-.5.81,2.59,4.1-1.08,8.72-5.81,8.45-2.91-.17-5.84-1.74-5.71-5.27a6.26,6.26,0,0,1,1.69-4,68,68,0,0,1-9.86-1.41c-4.18-1-8.12-2.38-11-5.8a8.14,8.14,0,0,1-1.82-3.41c-.85-3.67,1.66-5.66,5-5.64a6.11,6.11,0,0,1,3.22,1.21,35.92,35.92,0,0,0,13.28,5.26,3,3,0,0,0,1.66,0c-1.06-4.57,0-8.85,1.69-13.06.16-.41.47-.74.21-1.3-1.3-2.76-.66-5.44.48-8.06,2.87-6.57,6.58-12.72,9.63-19.2a48.19,48.19,0,0,0,1.79-4.69,7.79,7.79,0,0,0,.22-4.41c-1.55-6.49-1-13,.42-19.36.67-3,.38-5.28-1.89-7.48-2.44-2.35-4.94-4.7-6.49-7.81-1.62-3.27-2.67-6.64-2.14-10.36A4.11,4.11,0,0,0,50,68.06c-.6-.25-1.32-.43-1.55-1.09-.35-1-.87-.82-1.6-.49a15.74,15.74,0,0,0-5.47,3.77,33.82,33.82,0,0,1-4.83,4,7.78,7.78,0,0,1-5.1,1.61c-1.81-.05-3.62-.2-5.43-.36a1.16,1.16,0,0,0-1.35.63,8.94,8.94,0,0,1-9.21,4.4,12.37,12.37,0,0,0-2.78-.16,3.21,3.21,0,0,1-3.35-1.76,2.23,2.23,0,0,0-1.61-1.39A2.14,2.14,0,0,1,6.31,76a32.87,32.87,0,0,1-2.18-4.16c-.55-1.56.24-3,1.9-2.84A6.26,6.26,0,0,0,10.14,68a2.13,2.13,0,0,1,1.19-.36,5.35,5.35,0,0,0,4.55-2.54A8.19,8.19,0,0,1,22,62a1.47,1.47,0,0,0,1.17-.81c1.64-2.32,3.27-4.65,4.93-7a30.89,30.89,0,0,1,8.62-7.86c6.75-4.31,13.25-9,19.83-13.53A22.09,22.09,0,0,1,71.06,29c.51,0,1,.12,1.52.2S73.48,29.35,74,29.47Zm3.13,42.6a1.31,1.31,0,0,0,1.24.46,18.83,18.83,0,0,1,3.9,0c3.86.16,6.89-1.22,8.81-4.72a5.34,5.34,0,0,1,1.88-2,85.24,85.24,0,0,1,9.27-5.12A44.05,44.05,0,0,0,115,52.46,10.06,10.06,0,0,1,120.54,50a35.18,35.18,0,0,0,6-1.35,2.07,2.07,0,0,0,1.53-1.89,12.47,12.47,0,0,0-2.44-9.47,2.28,2.28,0,0,0-2.52-1,45.7,45.7,0,0,0-8.27,1.92,32.8,32.8,0,0,1-5.58,2.16,15.42,15.42,0,0,0-8.72,5.16c-3.19,3.58-6.66,6.86-10.14,10.16a3.29,3.29,0,0,1-2.32,1c-1.61,0-3.42.31-4.34,1.59C81.92,60.82,79,60.76,76.6,62A1.78,1.78,0,0,1,75,61.85a24.57,24.57,0,0,0-2.69-1.17,1.29,1.29,0,0,0-1.66.66c-.22.61.48.94,1,1.14a6,6,0,0,1,1.93,1.08,3.4,3.4,0,0,0,3.5.77,4.55,4.55,0,0,1,1.38-.18c.41,0,1.06-.29,1.12.41s-.55.67-1.08.76c-2.38.4-4.71.65-6.57-1.4a.7.7,0,0,0-.38-.17c-.33-.06-.75-.45-1,0A.81.81,0,0,0,71,64.82,9.45,9.45,0,0,1,73,66c1.68,1.75,3.56,2.47,5.92,1.59.27-.1.69-.21.85.2s-.11.68-.51.83c-1.88.71-3.71.87-5.44-.41-.65-.48-1.28-1-1.93-1.49.39,2.05,2.29,2.4,3.63,3.26,2.24,1.44,4.63.87,6.91-.25C82.44,71.56,81.82,71.83,77.17,72.07Zm30.34,5.45c-3,.78-5.91-.41-8.87-.51-.37,0-.83-.58-1.08,0s.33.85.71,1c.83.41,1.77.62,2.56,1.09a5.58,5.58,0,0,0,3.06.62c2.08,0,4.17.18,6.26.3.35,0,.71.15.69.55s-.49.3-.76.3a20.85,20.85,0,0,1-4.32-.24c-.78-.17-1.21.19-1,1s.9.71,1.39.62a26.13,26.13,0,0,1,6.67.05,4.93,4.93,0,0,0,2-.42c4.82-1.67,7.88-5,9.69-9.74,1.1-2.87,2.44-5.67,5-7.62,2.1-1.61,4.26-3.15,6.37-4.76a6,6,0,0,1,3.62-1.27,32,32,0,0,0,4-.28c1.06-.17,2.45-.22,2.8-1.47A15.23,15.23,0,0,0,145.73,46a2.13,2.13,0,0,0-2.67-1.33c-7,1.13-13.35,3.6-18.5,8.66-3.25,3.19-6.28,6.5-7.33,11.13a.63.63,0,0,1-.58.52c-2.41.32-4.13,1.79-5.75,3.43a3.11,3.11,0,0,1-3.15,1.09c-3-.92-5.63,1.08-8.53.64-.9-.13-1.52.82-1.47,1.72s.91,1,1.6,1c2-.13,4.05.51,6.08-.19.87-.31,1.83,0,2.09,1.39a6.34,6.34,0,0,0-3-.09,13.24,13.24,0,0,1-6.28-.44c-.77-.22-1,.21-1.34.64s-.07.82.4,1.1a2.73,2.73,0,0,0,1.39.6c2.4-.1,4.63,1.38,7.12.67A1.22,1.22,0,0,1,107.51,77.52Zm79.69,91.36a8.45,8.45,0,0,0-1.19-.57,5.22,5.22,0,0,1-3.8-4c-.26-1.22-.79-2.39-1.1-3.6a1.31,1.31,0,0,0-1-1.07c-1.93-.56-3.8-.54-5.33,1a1.68,1.68,0,0,1-2.48.13,1.73,1.73,0,0,1-.47-2.35c1.19-2.83,3.52-3.62,6.31-3.68.47,0,1.28.42,1.22-.57,0-.76.25-1.8-1-2-3.69-.67-5.92-3.24-7.7-6.18-2.12-3.49-4.42-6.92-5.16-11.07-.08-.45-.23-.76-.84-.52a17,17,0,0,0-7.6,5.2A6,6,0,0,0,155.9,145a70.21,70.21,0,0,0,4.92,13.61q3.31,7,6.13,14.18c1.35,3.4,4.24,5.45,7.31,4.93.83-.14,1.63-.39,2.46-.52a4.36,4.36,0,0,0,3.5-2.8,8.54,8.54,0,0,1,5.88-4.94C186.44,169.32,186.86,169.4,187.2,168.88Zm-49.34-66.24a2.25,2.25,0,0,0,2.3,1.82c1.67.05,3.35,0,5,0a3.63,3.63,0,0,0,2.08-.74,15.71,15.71,0,0,0,5.3-7c1.32-3.52,2.37-7.11,4.61-10.25,3.47-4.87,6.32-10.27,12.06-13a2.14,2.14,0,0,0,1.2-1.6c1-4.08-.1-7.72-2.27-11.15a1.31,1.31,0,0,0-1.64-.61,48.79,48.79,0,0,0-6.47,2.2,12.72,12.72,0,0,0-6.86,6.61,31.65,31.65,0,0,0-1.92,5.52c-.59,2.3-1.11,4.7-2.65,6.55a22.63,22.63,0,0,0-3.07,4.94c-.73,1.57-1.57,3.12-3.27,3.85A10.66,10.66,0,0,0,138.8,92a1.22,1.22,0,0,1-1.23.36c-1.45-.24-2.92,0-4.37-.61a1.67,1.67,0,0,0-2.15,1.31c-.25,1,.77,1.19,1.53,1.39,1,.28,2.07.51,3.1.81a4.76,4.76,0,0,0,4.92-1.08c.28-.25.49-.66,1-.66a4.44,4.44,0,0,1-5.17,3c-1.1-.16-2.17-.5-3.26-.76-.31-.08-.65-.2-.89.15s0,.71.24,1a3,3,0,0,0,2.73,1.1,6.88,6.88,0,0,1,2.88.4c3.13,1.06,4.06.75,6-1.95,0,0,.16,0,.25,0,.22.28,0,.53-.08.77-1.24,2.49-3.19,3.31-5.92,2.46a6.83,6.83,0,0,0-3-.66c-.54.07-1.45-.36-1.57.3s.69,1.22,1.36,1.56a3.09,3.09,0,0,0,.67.22l3.79.91a5.14,5.14,0,0,0,6.26-2.63c.23-.39.31-1,1-1.1a4.73,4.73,0,0,1-1.69,3.74C143.06,103.79,140.59,103.45,137.86,102.64ZM56.53,60.9c.3,1-.2,1.34-.85,1.6a6.05,6.05,0,0,1-4.11.18,27.93,27.93,0,0,0-4.39-.76,2.26,2.26,0,0,0,2.27,2,5.19,5.19,0,0,1,1.92.3c2.17,1.1,4.36,1.37,6.58-.06.12,1.24-.65,1.59-1.37,1.88a5.25,5.25,0,0,1-4.08,0c-.73-.29-1.48-.55-2.24-.77-.28-.08-.68-.26-.86.15a.69.69,0,0,0,.37.83c.85.47,1.8.78,2.62,1.3a5.69,5.69,0,0,0,6.89-.19c.14.49.46.87,0,1.32-1.74,1.71-3.89,1.14-6.11,1A3.3,3.3,0,0,0,55.88,71c1.67,0,3.35,0,5,0a6.52,6.52,0,0,0,4.14-1.46c1.15-.94,2.19-2,3.41-2.87,1.53-1.06,1.47-2.6,1.38-4.09C69.7,60.14,71.1,59,73.33,60a1.77,1.77,0,0,0,2.22-.38,72.4,72.4,0,0,1,8.18-6.31A6.53,6.53,0,0,1,87.36,52a27,27,0,0,0,5.5-.93c2.08-.53,4.18-3,4.18-5a9.78,9.78,0,0,0-2.91-6.89A3.2,3.2,0,0,0,91,38.28a39.43,39.43,0,0,0-8,2.46c-5.45,2.12-9.83,5.78-13.72,10.06-1.15,1.26-2.4,2.5-4.14,2.64a11.1,11.1,0,0,0-7.6,3.93,3.9,3.9,0,0,1-3.63,1.42c-1.8-.33-3.59.37-5.4-.12a1.26,1.26,0,0,0-1.58,1c-.09.71.69,1,1.24,1.11,1,.24,2.05.23,3,.52A6.44,6.44,0,0,0,56.53,60.9ZM236,112.43a4,4,0,0,1-.11,1.59,7.44,7.44,0,0,1-3.62,4.9c-.48.29-1.5.76-1,1.49s1.37.21,2-.13a2.26,2.26,0,0,0,.57-.4c1.18-1.06,2.38-2.08,3.5-3.2a4.75,4.75,0,0,0,1.51-3.79c-.43-3.43-.21-7-1.86-10.23a31.22,31.22,0,0,1-3.44-12.08,14.33,14.33,0,0,0-2.78-7.77,1.15,1.15,0,0,1-.13-1.17,12.19,12.19,0,0,1,1.56-3.86c.95-1.31.68-2.26-.42-3.34a16.48,16.48,0,0,0-5.92-3.3c-2.63-1-4-.65-5.54,1.64A11.65,11.65,0,0,0,218.31,82a48,48,0,0,0,4.82,12.59,12.3,12.3,0,0,1,1.49,7.21,8,8,0,0,0,.9,4.86,6.07,6.07,0,0,1,.83,2.5,5.37,5.37,0,0,1-2.91,5.3c-1.14.72-1.39,1.7-.7,2.44.85.9,1.66.51,2.43-.19a14.26,14.26,0,0,1,2.81-2,2.83,2.83,0,0,0,1.47-2.39c.05-.49-.19-1.13.44-1.48a4.52,4.52,0,0,1-2,5.1,10.48,10.48,0,0,0-2.69,2c-.27.29-1.16.38-.61,1.11a1.16,1.16,0,0,0,1.59.46c1.88-1.28,3.76-2.55,5.5-4,.53-.45.62-1.43.91-2.15.17-.42.12-.93.71-1.33a6,6,0,0,1-2.61,5.29,20.26,20.26,0,0,0-1.91,1.39c-.36.33-1.14.77-.76,1.27s1.2.24,1.8-.06a2.12,2.12,0,0,0,.35-.23c1.22-1.14,2.55-2.16,3.87-3.18a4.7,4.7,0,0,0,1.54-2.91C235.61,113.2,235.49,112.78,236,112.43Zm-69.62,4.49a1.73,1.73,0,0,0,2.23.64,17.24,17.24,0,0,1,3.56-.62,7.92,7.92,0,0,0,5.45-3c3.16-4.2,4.52-9.21,5.55-14.27.43-2.14.44-4.36.84-6.5.74-4,3-7,5.87-9.77.38-.37.85-.63.73-1.37-.64-3.84-2.88-6.57-5.95-8.74a1.2,1.2,0,0,0-1.72.21c-.88.83-1.85,1.55-2.75,2.36-3.13,2.82-5.69,5.93-6.33,10.35a51.21,51.21,0,0,0-.54,8.47c0,1.06-.05,2.22-1.15,2.65-2.13.82-3,2.54-3.52,4.52a2.86,2.86,0,0,1-1.79,2,3,3,0,0,0-2,2.26,1.39,1.39,0,0,1-1.39,1.17c-1.53-.13-2.92.55-4.4.52-.86,0-1.81.2-1.9,1s.86,1.24,1.65,1.41a4.31,4.31,0,0,0,1.52,0,8.88,8.88,0,0,1,2.36-.09,6.35,6.35,0,0,0,4.45-1.29c.29-.19.59-.84,1-.34s.07,1-.41,1.31a6.51,6.51,0,0,1-4.28,1.42,18.51,18.51,0,0,0-3.33.21c-1,.07-.85.56-.46,1.09a2.43,2.43,0,0,0,2.52.81,17.93,17.93,0,0,1,3.87-.43c1.53.1,3.06.1,4.35-1.05a1,1,0,0,1-.41,1.41,4,4,0,0,1-2.36.7c-1.94,0-3.91-.17-5.76.66a1.53,1.53,0,0,0,1,1.09,5.58,5.58,0,0,0,4.08-.16,4.8,4.8,0,0,1,2-.49,5.41,5.41,0,0,0,4.65-1.37c.36,1-.21,1.54-.9,1.89a4.66,4.66,0,0,1-2.83.58A5.14,5.14,0,0,0,166.4,116.92Zm89.34,38.46c-.4-.18-.65-.28-.89-.4a25.63,25.63,0,0,0-4.1-1.37,3.32,3.32,0,0,0-4.22,1.32,8.39,8.39,0,0,0-1.19,2.51,1.66,1.66,0,0,1-1.67,1.23,2,2,0,0,1-2-1.08,3.42,3.42,0,0,1-.15-2.57,8.5,8.5,0,0,1,2.09-3.22c-2-1.3-2-1.3-3.45.16a12,12,0,0,1-10,3.75c-3.8-.35-7.57-.93-11.41-1a10.66,10.66,0,0,1-6.09-1.77c-.69-.49-1-.36-1.24.43a76.12,76.12,0,0,0-2.42,8.14c-.61,2.74-.34,3.41,2.23,4.47a6,6,0,0,0,2.57.55l4.18-.2c6.65-.31,13.13,1.36,19.72,1.71,3.95.21,7.89.69,11.85.22,2.19-.26,2.93-1.25,2.5-3.39C251.34,161.06,252.05,157.77,255.74,155.38Zm-208-90.56A2.88,2.88,0,0,1,46.46,62a2.08,2.08,0,0,0-.26-1.18,2.25,2.25,0,0,1,2.08-3.33,41.39,41.39,0,0,1,4.72,0,5.52,5.52,0,0,0,5.14-2.12,8.77,8.77,0,0,1,5.71-2.92,8.25,8.25,0,0,0,2.43-.6A1.15,1.15,0,0,0,67,50.31c-1-4.62-4.92-6.7-9.09-4.63s-8.63,3.92-12.43,6.86c-4,3.06-7.67,6.51-12.5,8.27a6.38,6.38,0,0,0-1.87,1.44,2.23,2.23,0,0,1-1.87.74,4.1,4.1,0,0,0-1.76.34,6.72,6.72,0,0,1-4.25.09,3,3,0,0,0-2.57.14c-.47.28-1.05.54-1,1.23a1.17,1.17,0,0,0,1.21,1c2-.14,3.95.75,5.95.17.43-.12,1-.45,1.14.26s-.52.73-.88.79a23.83,23.83,0,0,1-6.9-.24c-.33,0-.69-.55-1-.1a.92.92,0,0,0,.36,1.23,3,3,0,0,0,1.13.5c1.73.33,3.47.6,5.19,1.06a8,8,0,0,0,2.07,0c.42,0,1-.78,1.21.13s-.54.9-1,1a7.69,7.69,0,0,1-3.72-.09,18.15,18.15,0,0,0-4.4-.71,2.56,2.56,0,0,0,1.48,1.51,10.67,10.67,0,0,0,5.83,1c.74-.06,1.48-.15,2.23-.19a.77.77,0,0,1,.9.69c0,.61-.52.42-.82.44a29.2,29.2,0,0,1-5.92.26,3.18,3.18,0,0,0,2,.8c1.11.09,2.23.21,3.33.35a10.33,10.33,0,0,0,8-2.35C40.49,69.74,43,66,47.74,64.82ZM165.39,178.38c-2.9-5.31-5-10.59-7.32-15.75-1.39-3-1.38-3-4-.86-1.17,1-2.22.83-3-.49a2.82,2.82,0,0,1,.31-3.38,10.09,10.09,0,0,1,2.6-2.09c.3-.19.7-.27.73-.76a10.43,10.43,0,0,0-2.6-4.54c-1.81-.95-3.81-1.48-5.49-2.72-.63-.47-.84-1.78-1.66-1.46-.61.24-.91,1.33-1.28,2.08-1.75,3.48-4.25,6.56-5.47,10.33a4.29,4.29,0,0,0,.51,4.41,20.84,20.84,0,0,0,3.44,3.64c5.18,4.05,11,6.9,17,9.51A29.81,29.81,0,0,0,165.39,178.38ZM93,168.25a17.9,17.9,0,0,1-1-10c.21-1.05.69-2.24.39-3.14-.36-1.09-1.93-.79-2.88-1.34a1.56,1.56,0,0,0-2.21.28,7,7,0,0,1-2.74,1.62c-5.49,2.08-11,1.81-16.6.36-.71-.19-1.17-.38-1.39.6a20.52,20.52,0,0,0-.2,8.72,3.29,3.29,0,0,0,1.89,2.42,13.55,13.55,0,0,0,6.51,1.32C80.77,168.93,86.81,168.8,93,168.25Zm24.69-16.38a4.42,4.42,0,0,1-3.28,2.61c-6.49,1.31-12.84,1.06-18.94-1.79-.57-.27-.83-.37-1.12.34a19.45,19.45,0,0,0-1.54,8.54,16,16,0,0,0,.68,3.83c.66,2.11,2.61,2.6,4.45,2.8a76.43,76.43,0,0,0,16-.31c1.18-.11,1.54-.57,1.44-1.74-.4-4.54.89-8.75,2.81-12.78C118.51,152.61,118.26,152.29,117.65,151.87Zm81.74-37.75a13.12,13.12,0,0,1-1,1.13c-1.42,1.29-3.37,1.74-4.85,3-.28.24-.9.19-.67.83a1.11,1.11,0,0,0,1,.78,2.23,2.23,0,0,0,1.85-.82,6.83,6.83,0,0,1,2.2-1.68,7.22,7.22,0,0,0,4.27-5,66.12,66.12,0,0,1,5.26-13.19,7.59,7.59,0,0,0,1-5,19,19,0,0,1-.27-6.93,42,42,0,0,1,3.19-9.35c.18-.41.59-.8,0-1.21A14.63,14.63,0,0,0,207.05,74a1.28,1.28,0,0,0-1.63.58,54.23,54.23,0,0,0-4.49,7.55,11.11,11.11,0,0,0-1.05,7.44c.69,3.13,1.13,6.32,1.65,9.49.4,2.46.08,4.73-1.91,6.52a3.61,3.61,0,0,0-1.42,2.5,5.68,5.68,0,0,1-1.82,3.93,6.34,6.34,0,0,1-2.14,1.92,4,4,0,0,0-1.68,1.44c-.39.55-.72,1.2-.19,1.78a1.29,1.29,0,0,0,1.8,0C195.69,115.86,197.76,115.43,199.39,114.12ZM182.11,22.27a12.14,12.14,0,0,0-12.36,13.56c.08.58.12,1.13.9,1.15,3.59.1,6,2.28,8.19,4.76,1.44,1.6,1.83,1.61,3.48.18.53-.47.83-.82.18-1.56a4.27,4.27,0,0,1-.83-3.82,3.31,3.31,0,0,1,3-2.85c1.72,0,2.41.49,2.93,2.5.21.84.59,1.41,1.43,1.45s1.29-.56,1.62-1.3c.45-1.05.71-2.25,1.89-2.84a.64.64,0,0,0,.28-.43c.07-2.28.35-4.58-1.36-6.5A12.14,12.14,0,0,0,182.11,22.27Zm-43.4,132.3a23.78,23.78,0,0,1-6.2.64,37.9,37.9,0,0,1-12.38-1.62c-.7-.22-.95-.16-1.23.51-1.48,3.52-2.85,7-2.54,11a2.81,2.81,0,0,0,1.65,2.61,9.52,9.52,0,0,0,3.15,1.05,66.47,66.47,0,0,0,13.23.1,13.49,13.49,0,0,0,3.67-.47C134.13,163.61,137.15,159.25,138.71,154.57ZM257.87,40.78c-4.68-.08-10.08,4.42-11.78,9.53-.25.77.1,1.17.81,1.49a11.72,11.72,0,0,1,6.87,8.29c.33,1.35,1,1.47,2.08,1.19a4.13,4.13,0,0,0,2-1.15c.39-.39.44-.65,0-1.13a5.43,5.43,0,0,1-.66-6.12,3.55,3.55,0,0,1,3.14-2A2.64,2.64,0,0,1,263,53c.17.52.4,1,.6,1.55s.51,1.17,1.24,1.12.81-.63.92-1.21c.21-1.14.58-2.08,2-2.38,1-.22,1.42-1,1.12-2.14C267.24,43.6,263.68,40.87,257.87,40.78ZM155,144.14c-1.06,2.54-1.48,5-.24,7.66,1.93,4.17,3.59,8.47,5.43,12.69a144.62,144.62,0,0,0,6,13.17c2.14,3.81,5,6.05,9.71,5.46,3.41-.43,6.88,0,10.32-.35s5.39-2,5.68-5.06a8.42,8.42,0,0,0-2.13-6.71,2.34,2.34,0,0,0-2.08-.84,7.47,7.47,0,0,0-6.61,4.63c-.46,1-.75,2.17-1.71,2.66-4.41,2.23-8.57,2.69-11.74-1.82a9.44,9.44,0,0,1-.91-1.57c-2.66-6.08-5.45-12.12-7.92-18.29A71,71,0,0,1,155,144.14Zm53.91,21.45c.22,2.88,1.56,4.17,4.05,4.06a78,78,0,0,1,14.49.44,70.89,70.89,0,0,0,10,1,135.19,135.19,0,0,1,14.65.34c3.6.39,7.19.15,10.39-1.89,3.43-2.2,3.92-5.35,1.66-8.59a16.92,16.92,0,0,0-5.54-4.58,1.91,1.91,0,0,0-2.18,0c-2.85,1.61-4.12,4.74-3.43,8.59.52,2.91-.38,4.12-3.34,4.31a96.1,96.1,0,0,1-19.46-1.19,56,56,0,0,0-13.5-.59C213.9,167.78,211.27,167.75,208.89,165.59ZM194.18,44.73c-.22.64.28.88,1,1.07a7.51,7.51,0,0,1,4.24,2.78c.67.87,1,2.24,1.89,2.63S203.5,51,204.6,51s1.1-.29.91-1.19a3.11,3.11,0,0,1,2.74-4,1.5,1.5,0,0,0,1.14-.66,11.43,11.43,0,0,1,6.35-4.76c1.19-.4,1.1-.85.55-1.74-1.51-2.49-3.84-3.61-6.51-4.44A11.94,11.94,0,0,0,194.18,44.73Zm30.17,5.41a6.74,6.74,0,0,0,.65,3.48,2.92,2.92,0,0,0,4.25,1.17A16.47,16.47,0,0,1,233,52.38a2.8,2.8,0,0,0,2.1-2.44,2.93,2.93,0,0,1,.67-1.21c1-1.39,2.34-1.27,3.76-1a2,2,0,0,1,1.84,2.21c0,.46.23.61.67.7,2.2.45,2.36.38,3.28-1.59a8.65,8.65,0,0,1,.77-1.48,1.7,1.7,0,0,0,0-2.16c-2.76-4.27-6.72-6-11.73-5.79C228.19,39.92,224.41,43.78,224.35,50.14ZM26.24,165.31c-.39,1.76.41,3,1.37,4.14,2.69,3.28,6.43,4.7,10.36,5.61a64.1,64.1,0,0,0,13.13,1.55c6.7.17,13.4.35,20.11.47,10.18.19,20.38.23,30.57.32,13.36.12,26.73.25,40.09-.32,2.43-.11,4.85-.39,7.28-.6a6.15,6.15,0,0,0-3.84-1.34,124.87,124.87,0,0,1-12.83.53c-8.85-.39-17.7-.1-26.55-.21-7.73-.1-15.46,0-23.19,0H64c-5.67,0-11.35.22-17-.55-3.28-.44-6.44-1.39-9.66-2.11A18.74,18.74,0,0,1,26.24,165.31ZM25.49,62.57c1.72-1,4.19-.3,5.9-2.15a8.92,8.92,0,0,1,3.43-1.82,10.6,10.6,0,0,0,2.68-1.46,108.5,108.5,0,0,1,13.35-9.37c.87-.48,1.12-1,.68-1.89-.25-.5-.46-1-.74-1.5A4.4,4.4,0,0,0,44.07,43c-.83.6-1.71,1.13-2.58,1.68a72.08,72.08,0,0,0-8.69,6.28c-3.5,3-5.66,7-8.36,10.6-.16.21-.4.46-.22.74S24.89,62.47,25.49,62.57ZM292.86,164a8.2,8.2,0,0,1-2.47,4.89,16.38,16.38,0,0,1-3.28,1.81c-4.15,2.37-8.52,4.24-13.36,4.39-7.11.23-14.23,0-21.34-.29-7.35-.32-14.7-.19-22-.49-12-.5-24.11-.32-36.16.07-.65,0-1.46-.21-1.43,1s.74,1,1.45,1c3.25-.14,6.5-.22,9.75-.36,6.85-.28,13.68-.09,20.52.07,5.21.11,10.42.46,15.63.57,6.37.14,12.75.1,19.12.22,6.54.11,13.11.61,19.62-.8a32.25,32.25,0,0,0,11.34-4.83,10.78,10.78,0,0,0,2.79-3.08A3.47,3.47,0,0,0,292.86,164Zm-227.42-8.2a26.24,26.24,0,0,1-7.31,1,9.9,9.9,0,0,1-6.1-1.61c-.75-.54-.82,0-1,.49a28.2,28.2,0,0,0-1.8,7.29,5,5,0,0,0,3.92,5.53,39.08,39.08,0,0,0,9.6.48c1.18-.06,2.34-.24,3.55-.36C64.5,164,64.41,162.81,65.44,155.76Zm134.61-4.41c-.21-.11-.26-.16-.29-.15-.23,0-.46.08-.69.1-3.76.37-7.5,1.69-11.3.4a1.48,1.48,0,0,0-2,.75,24.14,24.14,0,0,0-3.07,6.54c-.77,2.71.36,4.72,3,5.61,3.38,1.12,6.88.92,10.36,1.05.66,0,.6-.4.57-.84a13.19,13.19,0,0,1,.25-3.6A47.57,47.57,0,0,1,200.05,151.35ZM75,26.8c.18,1.34-.2,3.13,1.54,4.12.52.29.8,1.42,1.68.61,1-1-.29-1.24-.62-1.7-1.11-1.62-.86-4.28.62-5.3,1.67-1.15,3.32-.66,4.57,1.44a1.92,1.92,0,0,0,1.75,1,1.57,1.57,0,0,0,1.51-1.23,5.21,5.21,0,0,1,1.29-2.12,5.35,5.35,0,0,1,5.18-1.27A4.76,4.76,0,0,0,97,20.88a1.41,1.41,0,0,0,.12-2.24c-3.33-4.2-8.72-5.51-14.59-3.44C77.61,16.94,74.93,21,75,26.8ZM222.49,53.67c1.46.55,1.39-.08,1.11-1.36a11,11,0,0,1,1.84-9.15c.76-1,.43-1.35-.5-1.76a11.36,11.36,0,0,0-11.07.91,9.86,9.86,0,0,0-5,7.79c-.1,1.11,0,2,1.25,2.46a6.49,6.49,0,0,1,3,2.44c.58.87,1.13.93,2.06.5A16.36,16.36,0,0,1,222.49,53.67ZM99.92,101.38c-.1.12-.18.19-.19.25,0,.38,0,.75,0,1.12A116.33,116.33,0,0,1,98,123.15a92,92,0,0,1-3.91,14.08c-1.5,4.14-3.48,8.11-4.51,12.43-.64,2.64-.71,2.65,1.87,3.44.52.16,1.18.79,1.63.09s1-1.53.28-2.53a4.51,4.51,0,0,1-.46-4.28c1-2.79,2.08-5.58,3.33-8.28a174.34,174.34,0,0,0,7.71-19.72,11.47,11.47,0,0,0-.63-9,59,59,0,0,1-2.74-6.71A2.71,2.71,0,0,0,99.92,101.38Zm55-69.89c.27-.48,0-.87-.06-1.27-.35-2.26.67-4,2.66-4.58,1.78-.5,2.94.27,3.86,2.66a1.43,1.43,0,0,0,2.15.82,2.6,2.6,0,0,0,1.64-2.53c0-2.5,1.49-3.64,3.89-3a5,5,0,0,0,3.41.13c1-.42,1.27-1,.53-1.93a15.29,15.29,0,0,0-3.4-3.08c-3.23-2.18-6.82-3.27-10.56-1.75a12.69,12.69,0,0,0-7.56,12.3c0,.51.12,1,.74,1.21C153.1,30.77,154,31.14,154.89,31.49Zm-56.43.74c-1.71-1.07-1.83-2.62-1.52-4.25a2.78,2.78,0,0,1,2.56-2.37c1.61-.06,2.18.39,2.73,2.13A1.94,1.94,0,0,0,105.29,29a3.38,3.38,0,0,0,1.61-2c.76-2.26,2.17-3,4.43-2.37a4.29,4.29,0,0,0,4-.94,1.12,1.12,0,0,0,.49-1.44c-.68-1.66-1.5-3.25-3.23-4a12.39,12.39,0,0,0-11.66.33C96.35,21,95,27.56,96.13,31.73,96.51,33.16,96.81,33.23,98.46,32.23ZM241.55,91c1.27,2.25,1.78,2.57,3.29,2.16,2.18-.6,2.44-.46,3.06,1.67a1.64,1.64,0,0,0,2.23,1.26c1-.32,1.23-1.09.66-2.27a8.05,8.05,0,0,0-5.13-4.41A9.33,9.33,0,0,1,242.5,88c-.47-.37-.72-.34-1.09.17a24.41,24.41,0,0,0-2.61,4.43c-.55,1.22-1.16,2.53-.71,3.9.9,2.71,2.95,4.59,4.85,6.76.36-1-.15-1.36-.57-1.78-.24-.24-.46-.46-.16-.82s.65-.21.93,0c.88.82,1.44,1.74.75,3-.15.27-.27.51-.15.56.6-.48,1.07-.92,1.6-1.26.72-.46.58-1,.19-1.53a4.48,4.48,0,0,0-.79-.78.52.52,0,0,1-.14-.83c.22-.31.46-.16.72,0a2.32,2.32,0,0,1,.48,4.13c-.88.61-.64,1.08-.15,1.69a1.93,1.93,0,0,0,2.29.45c.27-.08.51-.25.29-.61-.78-1.32,0-2.34.76-3.26a1.09,1.09,0,0,0-.16-1.86c-.56-.43-1.16-.78-1.74-1.17a.5.5,0,0,1-.21-.71.52.52,0,0,1,.67-.28c2.57.65,3.4,2.75,1.93,4.9-.41.6-.81,1.17-.11,1.85a1.43,1.43,0,0,0,2,.08,3.78,3.78,0,0,0,1.76-3.16,4.57,4.57,0,0,0-4.1-4.44,2,2,0,0,1-2.13-1.67c-.25-1.61-1-2-2.49-1.42a2.42,2.42,0,0,1-2.76-.89A1.78,1.78,0,0,1,241.55,91ZM126.16,31a8.77,8.77,0,0,1-1.37-2.35c-.58-2,0-3.78,1.49-4.31s2.4.11,3.46,2.2a1.64,1.64,0,0,0,2.63.74,2.81,2.81,0,0,0,1.34-2.18,2.58,2.58,0,0,1,1.91-2.17,5.34,5.34,0,0,1,3.42-.16,4.63,4.63,0,0,0,3.64-.43c1.35-.74,1.5-1.84.43-2.92a12.07,12.07,0,0,0-5.76-3.21c-6.21-1.63-13.94,1.85-14.07,10.42C123.23,29.65,123.21,29.72,126.16,31Zm-3.93,105.76a6.52,6.52,0,0,0,.53-.59c3.22-5.8,6.08-11.83,10.1-17.16a1.11,1.11,0,0,0,.06-1.06c-1.76-6.61-2.61-13.4-3.85-20.11-.11-.58.13-1.35-1-1.28s-1.23.66-1.14,1.56c.34,3.28.68,6.56,1,9.85a34.15,34.15,0,0,1-1.74,12.77C124.64,125.88,123.46,131.13,122.23,136.73ZM9.57,77.77a2.11,2.11,0,0,0,2.29,1.37,41.29,41.29,0,0,1,4.17.17c3,0,5.72-.77,7.6-3.34.19-.25.73-.6.24-.91-.9-.56-1.31-1.61-2.11-2.15-2.57-1.74-3.17-4.23-3.12-7.07,0-.44.17-1.06-.32-1.25s-.71.36-1,.67a8.17,8.17,0,0,1-5.65,3.36c-1.73.2-3.31,1.46-5.3,1.09A1.28,1.28,0,0,0,5,71.16c.11.68,1,.58,1.55.5a12.63,12.63,0,0,1,3.19-.15A3.62,3.62,0,0,0,12.46,71c.21-.15.45-.4.7-.06a.55.55,0,0,1-.1.75,3.53,3.53,0,0,1-2.87,1.17c-1.64,0-3.29,0-5.12,0a2.14,2.14,0,0,0,1.76,1,25.46,25.46,0,0,1,2.77.27A5.7,5.7,0,0,0,14,73.48c.24-.16.55-.49.84-.1s0,.69-.29.94a4.45,4.45,0,0,1-3.38,1.05c-1.2-.08-2.4-.26-3.6-.39-.26,0-.59-.19-.72.18s.17.53.4.66a2.45,2.45,0,0,0,.88.38c1.61.26,3.22.51,4.83.74a4.65,4.65,0,0,0,3.33-.74c.26-.17.54-.64.91-.22s.08.87-.29,1.17a5.76,5.76,0,0,1-3.38,1.12A29.72,29.72,0,0,1,9.57,77.77Zm201.16,75c-3.06.58-5.87.89-8.56-.43-.79-.39-1.06-.05-1.35.59a45.25,45.25,0,0,0-2.9,8.86,2.21,2.21,0,0,0,1.76,2.85c2.15.69,4.41.66,6.61,1,1.15.17,1.61-.26,1.54-1.44a9.82,9.82,0,0,1,.27-2.21A47.39,47.39,0,0,1,210.73,152.74ZM172.05,25.08a9.45,9.45,0,0,1-2.79-.34c-2.4-.83-3.59.05-3.6,2.59a3.28,3.28,0,0,1-2.14,3c-1.3.3-2.42.05-3-1.36-.1-.26-.21-.55-.58-.35-.59.31-1.19.06-1.78.07s-1.28.26-1.2,1,.75.79,1.31.66c.85-.2,1.6-.26,2,.72a1.54,1.54,0,0,1-.76,2.22c-.54.24-.54.46-.18.9a11.5,11.5,0,0,1,2.05,3.14c.22.61.7.48,1.16.39a33.68,33.68,0,0,1,5.37-.83c.64,0,.74-.33.7-.9a13.57,13.57,0,0,1,1.34-7C170.54,27.64,171.3,26.43,172.05,25.08ZM95.67,23.32a8.77,8.77,0,0,1-3.53.18c-2.92-.52-4.17.22-5.27,3-.72,1.78-3.1,2.48-4.18,1-.77-1-1.44-.8-2.32-.6-.42.1-1.11,0-.92.67s.76.4,1.2.19c1.08-.51,1.54.05,1.81,1,.31,1.1-.17,1.92-1.56,2.11-1.15.15-1.6.8-2.06,1.79,2.26-.43,4.34-1.16,6.52-1.35A9.81,9.81,0,0,1,93,33.64c.74.64,1.4.14,2.08-.06.4-.11.45-.4.31-.77C94.21,29.7,94.51,26.61,95.67,23.32Zm30.91,4.39a1.68,1.68,0,0,0,1.31.21c.8-.24,1.15.14,1.46.86.53,1.21-.08,1.75-1.09,2.07-.62.19-1.09.64-.94,1.15a1.12,1.12,0,0,0,1.56.74c.66-.23,1.34-.39,2-.6,3.86-1.23,7.7-2.52,11.8-2.61a1.43,1.43,0,0,0,1.37-.8,9.26,9.26,0,0,0,.48-7.08,4.2,4.2,0,0,1-1.69,1.88,5.71,5.71,0,0,1-4,.24c-2.56-.71-3.95.05-4.7,2.5,0,.13-.1.26-.15.39a3.06,3.06,0,0,1-2.66,2c-1.09.18-1.56-.63-2-1.41-.13-.23-.3-.69-.54-.47C128.22,27.34,127.23,26.87,126.58,27.71Zm18.19,116.86c2.41-.95,2.46-1.06,2.38-3.11a7,7,0,0,1,.73-3.8c1-1.78,2-3.54,3.18-5.24,2.39-3.54,4.92-7,6.39-11.07a4.74,4.74,0,0,0,.2-2.86c-.89-3.69-3.5-6.54-4.85-10-.1-.25-.31-.5-.64-.4s-.3.42-.26.69c.14.92.26,1.84.45,2.75a26.67,26.67,0,0,1,.39,10.11,63.54,63.54,0,0,1-4.27,13.51C147.18,138.17,146.06,141.26,144.77,144.57ZM269,52.83c-2.28.88-2.3.87-2.59,2.21-.2,1-.66,1.68-1.69,1.76a2,2,0,0,1-2.14-1.45,4.58,4.58,0,0,0-3-1.12.75.75,0,0,0-.42.67,1.25,1.25,0,0,0,1.28,1.49c1,.12,1.65.47,1.49,1.58s-.67,1.83-1.8,1.75a1.86,1.86,0,0,0-1.8,1,3.67,3.67,0,0,1-2.88,1.76c-1,0-1.28.26-1.36,1.21s.46,1.17,1.2,1.27a11,11,0,0,0,3.75,0A12.24,12.24,0,0,0,269,52.83ZM167.94,182.16c-1.16-1.63-2.23-2.9-4.23-3.48-5.43-1.56-10.43-4.22-15.4-6.83-4-2.13-8-4.47-10.32-8.69-.13-.24-.12-.67-.63-.6a6.11,6.11,0,0,0,.63,3.21c1.27,2.57,3.57,4.13,5.64,5.91s5,2.82,7.53,4.14a112.24,112.24,0,0,0,14.71,6A4,4,0,0,0,167.94,182.16Zm-116-4.48c-1.15,0-2.33-.22-3.31.69a4.35,4.35,0,0,0,.38,6.49,5.5,5.5,0,0,0,7.58-.49,3.58,3.58,0,0,0,.78-4.11c-.48-1.3-1.06-2.47-2.8-2.38A19.53,19.53,0,0,1,51.89,177.68Zm209.6,8.74.56,0c2.53-.17,4-1.86,4-4.58,0-2.43-1.36-3.68-4-3.77-.93,0-1.86-.06-2.79-.06a3.13,3.13,0,0,0-3,2.35C255.37,183.45,258,186.43,261.49,186.42ZM95.08,172.12c-.8-2.22-2-3.28-4.09-2.82a25.68,25.68,0,0,1-6.13.32c-5.69-.15-11.5,1.26-17.12-1.38a6.18,6.18,0,0,0,5.46,3.56c4,.17,8.08.38,12.13.33C88.58,172.08,91.83,172.12,95.08,172.12Zm21.23-1c-.91-2.5-.9-2.37-3.31-2.25-4.86.23-9.72.87-14.6.18a28.79,28.79,0,0,1-4.21-1.2c1.61,2.13,3,3.95,5.6,3.92,2.27,0,4.54,0,6.81-.14C109.83,171.49,113.05,171.28,116.31,171.11ZM98.9,29c1.14.44,2.59,0,2.65,1.58,0,.86.45.79,1.09.67,4.18-.79,8.33-1.85,12.62-2a.9.9,0,0,0,1-.71,9.06,9.06,0,0,0,.12-4.34c-1.49,1-2.92,1.72-4.66,1.27-2.12-.56-3.84-.21-4.61,2.62a3,3,0,0,1-2.82,2.13c-1.25.11-1.93-.69-2.4-1.75-.13-.31-.17-.71-.69-1C101,28.68,99.8,28.32,98.9,29Zm17.79,138.88c.29,1.72.84,3,2.35,3.43a12.2,12.2,0,0,0,2.89.4c5.16.25,10.31.09,15.47,0,1.2,0,2.4-.11,3.61-.17l.05-.35c-1.2-.46-1.67-2-3.38-1.81a76.63,76.63,0,0,1-14,.53A12.47,12.47,0,0,1,116.69,167.86ZM192.76,34.71a4.44,4.44,0,0,0-1.38,2.3,2.32,2.32,0,0,1-2.25,1.75c-1.15.07-1.75-.69-2.16-1.66-.12-.3-.05-1-.56-.73-.75.33-1.77-.16-2.29.74-.21.35,0,.63.36.77a2.39,2.39,0,0,0,.81.17c1.12.07,1.31.82,1.34,1.74s-.43,1.31-1.32,1.42c-.48.06-1.14-.17-1.41.39a5.71,5.71,0,0,1-2.51,2.33c-.49.28-.47.61-.27,1s.17.94.86.84c1.85-.25,3.78-.37,5.32-1.49C190.42,42.05,191.72,38.66,192.76,34.71ZM50,167.6a5,5,0,0,0,4.49,4.26,51.58,51.58,0,0,0,11.11.1c1.15-.08,2.31-.13,3.58-.2-1.3-1.48-2.47-2.63-4.49-2.15a26.42,26.42,0,0,1-6.94.24C55,169.76,52.2,169.88,50,167.6Zm149.17,1.91c-.66-.73-1.19-1.08-1.37-1.56-.46-1.3-1.49-1.37-2.57-1.38-4,0-7.93-.07-11.57-2.12,1,3,4.19,3.38,6.37,4.71C192.57,170.72,195.84,169.54,199.13,169.51Zm9.91.17a7.67,7.67,0,0,1-.8-1.75c-.18-1.12-.73-1.36-1.86-1.49-2.84-.32-5.87.06-8.42-1.86.08,2.16.87,3.36,2.69,4C203.31,169.53,206.09,169.55,209,169.68Zm42.15-77.23c.19.81.82,1.52.69,2.36-.1.69.16.82.74.77,1.23-.11,1.76.59,1.95,1.69a3.25,3.25,0,0,0,1,1.94,1.5,1.5,0,0,0,1.68.34,1.28,1.28,0,0,0,.69-1.4,8.74,8.74,0,0,0-1.16-4.1,3.11,3.11,0,0,0-2.49-1.58C253.29,92.38,252.28,92.45,251.19,92.45ZM182,49.1a20.7,20.7,0,0,1,10.54-3.61c.49,0,.61-.3.65-.72.07-.86.17-1.72.27-2.71-1.13.61-2.56.34-3.29,1.29-1.81,2.36-4.4,2.93-7.07,3.41C181.46,47.06,181.36,47.3,182,49.1Zm-.9,108.69a1.94,1.94,0,0,0-1-1.25c-1.89-1.3-6-.39-7.11,1.61-.26.45-.65,1-.08,1.51a1.19,1.19,0,0,0,1.75.05,5.87,5.87,0,0,1,5.83-1.33C180.83,158.47,181.18,158.53,181.08,157.79Zm61.25-1.72c.07.57.15,1.34,1,1.51a1.42,1.42,0,0,0,1.79-1.12,7.31,7.31,0,0,1,2.53-3.56c.25-.2.79-.33.55-.81a1.12,1.12,0,0,0-1-.44C245.19,151.46,242.36,154,242.33,156.07Zm-60.2,1a36.29,36.29,0,0,1,3.34-5.77c.23-.3.1-.49-.12-.7a.76.76,0,0,0-1-.14c-.65.36-1.37.61-2,1s-1.77.05-1.88,1.08a5.8,5.8,0,0,0,.28,2.48A9.59,9.59,0,0,0,182.13,157.07ZM258.65,55.66c0-1.86.83-2.64,2.32-2.21.46.14,1.08.51,1.31-.14s-.4-.88-.84-1.13a2.52,2.52,0,0,0-2.52,0c-1.3.67-1.89,2.11-1.61,3.94a2.82,2.82,0,0,0,2.59,2.65c.66.13,1.46.25,1.6-.58.11-.67-.67-.78-1.21-.86C259.22,57.18,258.54,56.72,258.65,55.66ZM152.74,148.2c.29-1-.2-1.49-1.13-1.82a9.22,9.22,0,0,1-2.68-1.74c-.38-.31-.75-1.17-1.42-.28-.51.68-1.07,1.29-.15,2.14a15.78,15.78,0,0,0,4.33,2.47C152.67,149.42,153,149.26,152.74,148.2Zm66.85-16.54.26.21,4.47-5.67a1,1,0,0,0,0-1.4c-.48-.58-1-1.14-1.59-1.81Zm-67.83,27.89c0,1.11.75,1.9,1.5,1.8.47-.07,3.15-2.46,3-2.74-.31-.77-.49-1.74-1.07-2.2s-1.12.53-1.7.82A2.83,2.83,0,0,0,151.76,159.55Zm6.79-128.33c-.94.16-1.67.05-1.93-1.06-.38-1.66.4-2.58,2.12-2.35.52.07,1,0,1.17-.45.19-.66-.54-.66-.91-.76a2.82,2.82,0,0,0-3,1,3.7,3.7,0,0,0-.11,3.72,2.51,2.51,0,0,0,2.62,1.22c.62-.07,1.4-.35,1.36-.95C159.85,30.85,159,31.26,158.55,31.22Zm27.76,3.84a2.58,2.58,0,0,0-3.37.31,3.25,3.25,0,0,0-.37,3.75,2.22,2.22,0,0,0,2.59,1.15c.41-.08,1.08,0,1-.59s-.6-.65-1.09-.64c-1.24,0-1.54-.77-1.59-1.82s.6-1.54,1.6-1.65C185.51,35.53,186,35.63,186.31,35.06ZM80,29.9a8,8,0,0,0,1.26-.32c.35-.13.94-.26.7-.81s-.69-.33-1.09-.14c-1.16.57-1.73.09-2-1.07s.21-1.67,1.39-1.62c.35,0,.84,0,.83-.48s-.44-.56-.82-.62a2.69,2.69,0,0,0-2.68,2.33A2.41,2.41,0,0,0,80,29.9Zm19.84,1.59c.5,0,1.28,0,1.3-.67s-.72-.56-1.21-.61a2.63,2.63,0,0,1-.69-.12A1.19,1.19,0,0,1,98.52,29c0-.48,0-1,.48-1.21a7.27,7.27,0,0,1,1.07-.26c.34-.1.8-.23.73-.68s-.5-.34-.82-.38a2.57,2.57,0,0,0-2.65,2.33A2.72,2.72,0,0,0,99.87,31.49ZM268.34,60a6,6,0,0,0,2.55-.21c.56-.18,1.25-.4,1.05-1.2a3,3,0,0,0-2.07-2.07c-.62-.18-.6.77-.78,1.25C268.83,58.42,268.62,59.13,268.34,60ZM127.47,29a1.22,1.22,0,0,1-1.25-.84c-.36-1.17,0-1.63,1.44-1.89.31-.06.74,0,.79-.4s-.39-.55-.75-.64a2,2,0,0,0-2.18.87,2.29,2.29,0,0,0,0,2.62A2,2,0,0,0,127.63,30c.53-.07,1.39-.18,1.35-.7-.07-.87-.84-.32-1.33-.31Zm73.29,86.94c-1.52,1.89-3.67,2.64-5,4.38-.18.26-.82.3-.5.79s.68.37,1.11.15C198.52,120.12,200.26,118.7,200.76,115.9Zm7.54-69a2.21,2.21,0,0,0-2,1.81,2.12,2.12,0,0,0,.7,2.36,1,1,0,0,0,.6.25c.31,0,.25-.34.24-.55A23,23,0,0,1,208.3,46.89ZM240.71,50a2.93,2.93,0,0,0-.4-.71,2.9,2.9,0,0,0-4.38.83c-.15.36-.39.89.07,1.1s.71-.15,1-.56c1-1.5,1.54-1.56,2.75-.37.22.22.4.36.71.27S240.73,50.35,240.71,50Zm-49.32-8.38c1.06,0,1.84-.21,2.21-1.1A2.13,2.13,0,0,0,193,38.3Z" transform="translate(-3.95 -13.17)"/></svg>